<?xml version="1.0" encoding="utf-8"?>
<!-- Generator: Adobe Illustrator 19.2.1, SVG Export Plug-In . SVG Version: 6.00 Build 0)  -->
<svg version="1.1" id="Layer_1" xmlns="http://www.w3.org/2000/svg" xmlns:xlink="http://www.w3.org/1999/xlink" x="0px" y="0px"
	 viewBox="0 0 415 463" style="enable-background:new 0 0 415 463;" xml:space="preserve">
<style type="text/css">
	.st0{fill:#575756;}
</style>
<path class="st0" d="M108.3,4.9v328.2h205.6V4.9H108.3z M151.9,123.4c-1.2,1.7-3.7,2.1-5.4,0.8c-1.7-1.2-2.1-3.7-0.9-5.4
	c1.3-1.7,3.7-2.1,5.4-0.8C152.8,119.3,153.2,121.7,151.9,123.4z M276.5,123.4c-1.2,1.7-3.6,2.1-5.4,0.8c-1.7-1.2-2.1-3.7-0.9-5.4
	s3.7-2.1,5.4-0.8S277.7,121.7,276.5,123.4z"/>
<g>
	<path class="st0" d="M53.7,408.8l-24.2-29v28.3h-4.1v-37.8l0.8-0.2l23.9,28.5v-27.8h4.1v37.8L53.7,408.8z"/>
	<path class="st0" d="M63.4,408.1v-37.3h21.8v3.7H67.5v12.9h16v3.7h-16v13.4h17.7v3.7H63.4V408.1z"/>
	<path class="st0" d="M125.3,408.7l-0.8,0.1l-11.8-29.5l-11.6,29.5l-0.8-0.1L90,370.8h4.1l7.4,27.4l11-27.8h0.5l11.1,27.6l7.3-27.3
		h4.1L125.3,408.7z"/>
	<path class="st0" d="M153.6,408.1v-37.3h21.8v3.7h-17.7v12.9h16v3.7h-16v13.4h17.7v3.7h-21.8V408.1z"/>
	<path class="st0" d="M212,408.8l-24.2-29v28.3h-4.1v-37.8l0.8-0.2l23.9,28.5v-27.8h4.1v37.8L212,408.8z"/>
	<path class="st0" d="M253.9,389.6v14.7c-3.8,2.8-8.1,4.4-13.6,4.4c-10.3,0-19.9-7.6-19.9-19.2c0-11.7,9.9-19.3,19.5-19.3
		c6.1,0,10,1.8,13.9,4.5l-2.1,3.2c-3.4-2.5-7.7-4.1-11.7-4.1c-9.6,0-15.1,7.4-15.1,15.6c0,8.8,6.9,15.6,15.6,15.6
		c3.7,0,6.6-0.8,9.5-2.5v-9.1h-10v-3.8L253.9,389.6L253.9,389.6z"/>
	<path class="st0" d="M262.1,408.1v-37.3h4.1v33.6h17.7v3.7L262.1,408.1L262.1,408.1z"/>
	<path class="st0" d="M315.8,408.1l-4.4-10.3h-16.7l-4.4,10.3h-4.2l16.7-37.9h0.7l16.7,37.9H315.8z M303,378.3l-6.9,16h13.7
		L303,378.3z"/>
	<path class="st0" d="M353.8,408.8l-24.2-29v28.3h-4.1v-37.8l0.8-0.2l23.9,28.5v-27.8h4.1v37.8L353.8,408.8z"/>
	<path class="st0" d="M373.5,408.4c-3.8,0-7.2-0.3-10.1-0.6v-36.6c2.8-0.4,5.9-0.6,9.7-0.6c14,0,21.3,9,21.3,18.6
		C394.4,399.1,387.5,408.4,373.5,408.4z M373.5,374c-2.2,0-4.7,0.2-6,0.4v30c1.6,0.3,3.6,0.4,6.5,0.4c11,0,16-6.9,16-15.8
		C390,380.5,384.3,374,373.5,374z"/>
	<path class="st0" d="M138.9,451c-2,0-3.8-0.7-5.4-1.7l0.7-1.2c1.5,1,3.1,1.7,4.8,1.7c2.5,0,4.1-1.6,4.1-3.6c0-2.2-1.4-3.1-4.1-4.3
		c-2.9-1.3-4.6-2.6-4.6-5.2c0-2.7,2.3-4.8,5.6-4.8c1.6,0,3.1,0.5,4.2,1.3l-0.7,1.2c-0.9-0.7-2.2-1.2-3.6-1.2c-2.5,0-4,1.5-4,3.5
		s1.6,3,3.8,4c3.2,1.4,4.9,2.7,4.9,5.4C144.6,449,142.1,451,138.9,451z"/>
	<path class="st0" d="M169.7,450.7v-18.6h1.4v17.3h9.1v1.3L169.7,450.7L169.7,450.7z"/>
	<path class="st0" d="M217.7,450.7l-2.4-5.7h-8.7l-2.4,5.7h-1.5l8.1-18.9h0.3l8.1,18.9H217.7z M210.9,434.7l-3.8,9.1h7.7
		L210.9,434.7z"/>
	<path class="st0" d="M248.3,433.4v17.3h-1.4v-17.3h-6.3v-1.3h14.1v1.3H248.3z"/>
	<path class="st0" d="M279.2,450.7v-18.6h10.5v1.3h-9.1v7.3h8.2v1.3h-8.2v7.5h9.1v1.3L279.2,450.7L279.2,450.7z"/>
</g>
</svg>
